<svg xmlns="http://www.w3.org/2000/svg" xmlns:svg="http://www.w3.org/2000/svg" id="svg6" width="612" height="612" version="1.1"><path id="path2" fill="#654ff0" d="m376 0c0 1.08 0 2.16 0 3.3 0 38.76-31.42 70.17-70.17 70.17-38.76 0-70.17-31.42-70.17-70.17l0 0c0-1.14 0-2.22 0-3.3L0 0l0 612 612 0 0-612z" style="fill:#000"/><metadata id="metadata12"/><g aria-label="3" transform="matrix(1.141234,0,0,1.141234,-389.85377,-108.04318)" style="font-style:normal;font-variant:normal;font-weight:700;font-stretch:normal;font-size:40px;line-height:1.25;font-family:'padmaa-Bold.1.1';-inkscape-font-specification:'padmaa-Bold.1.1 Bold';letter-spacing:0;word-spacing:0;fill:#fff;fill-opacity:1;stroke:none" id="flowRoot816"><path style="font-style:normal;font-variant:normal;font-weight:700;font-stretch:normal;font-size:333.33334351px;font-family:Keraleeyam;-inkscape-font-specification:'Keraleeyam Bold';fill:#fff;stroke-width:1.14123404" id="path834" d="m 195.96484,329.72656 46.52149,216.68946 h 41 l 31.91015,-147.46875 h 0.7793 l 29.81055,147.46875 h 40.25 l 43.84765,-183.8125 h 74.51954 l -42.72266,57.02539 v 24.88867 c 6.06776,-1.11449 11.63969,-1.67188 16.7168,-1.67188 30.46262,0 45.69531,9.90761 45.69531,29.72071 0,26.1285 -16.2838,39.19336 -48.85156,39.19336 -13.993,0 -31.02128,-3.09552 -51.08203,-9.28711 v 35.47656 c 16.59346,5.82009 34.30255,8.73047 53.125,8.73047 24.64252,0 44.4558,-6.625 59.43945,-19.875 7.18224,-6.31542 12.69246,-13.93177 16.53125,-22.84766 3.83878,-8.91589 5.75781,-17.8302 5.75781,-26.74609 0,-35.04441 -17.64543,-55.29164 -52.9375,-60.74024 l 42.16406,-54.42382 v -32.32032 c -49.28217,0 -103.6131,0 -150.29297,0 l -31.56054,149.2793 h -0.58985 l -30.06054,-149.2793 h -37.93946 l -33.28125,147.47071 h -0.5 L 236.52539,329.72656 Z" transform="matrix(0.87624449,0,0,0.87624449,341.60722,94.672241)"/></g></svg>